<svg version="1.2" xmlns="http://www.w3.org/2000/svg" viewBox="0 0 967 307" width="967" height="307">
	<title>logo-svg</title>
	<style>
		tspan { white-space:pre } 
		.s0 { fill: #d76538 } 
	</style>
	<g id="&lt;Group&gt;">
		<g id="LOGO">
			<g id="&lt;Group&gt;">
				<g id="&lt;Group&gt;">
					<g id="&lt;Group&gt;">
						<path id="&lt;Compound Path&gt;" fill-rule="evenodd" class="s0" d="m36.3 163.4q12.8-11.3 27.5-20.5 14.6-9.1 29.6-16.8 10.5-5.4 21.5-10.2 11.1-4.8 22.7-8.4l3-3.6q5.4-5.6 11.5-11 6.2-5.4 13.3-8.1 1.8-0.6 5.3-1.2 3.4-0.6 6.6-0.3 3.1 0.3 5.2 1.9 2.1 1.7 0.9 5.6-0.6 2.1-2.7 3-2.1 0.9-4.5 0-2.7-1.2-5.7-0.6-3 0.6-6.1 2.2-3.1 1.7-6.1 4-3 2.4-5.4 4.2 7.5-1.2 15.8-1.5 8.4-0.3 16.3 1.4 7.9 1.6 14.5 6 6.6 4.3 10.2 12.4 3.3 7.4 0.4 14.3-2.8 6.9-8.6 12.7-5.9 5.9-12.9 10.5-7 4.6-12.4 7.6-12.5 7.8-25.6 14.4-13 6.5-26.4 12.5 13.4-2.7 27-3.4 13.6-0.8 25 4.3 6.6 2.7 9.9 7.6 3.3 5 3.7 10.7 0.5 5.6-1.8 11.5-2.2 5.8-6.7 10.3-11.1 11-26.6 16.6-15.6 5.5-30.2 9.1-26 7.2-52.9 9.9 1.5 4.1 4.5 6.8 2.3 2.1 2 4.2-0.3 2.1-2 3.3-1.8 1.2-4.4 1.1-2.5-0.2-4.6-2.9-2.1-2.7-3.3-5.7-1.2-3-2.1-6.2-7.8 0.9-16.7 0.9-9 0-16.8-1.2-2.4-0.3-6.4-0.9-4-0.6-8.1-2-4-1.3-6.9-3.6-2.8-2.2-2.8-5.5 0-3.9 2.1-4.6 2.1-0.8 4.6 0.3 2.6 1 5.3 2.7 2.6 1.6 4.1 2.2 8.4 3 17.4 3.6 9 0.6 17.9 0.6h5.4q-0.3-11.4 3.1-23 3.5-11.7 6.8-20.4l1.5-4.5q-2.1 0.9-4.2 1.7-2.1 0.7-4.5 1.3h-0.3q-3.3 0.6-5.5-0.4-2.3-1.1-2-4.6 0-2.1 2-3.6 1.9-1.5 4.6-2.6 2.7-1 5.8-1.6 3.2-0.6 5.6-1.2l3.8-0.9q5.1-11.7 11-22.7 5.8-11.1 12.4-21.9 6.2-10.4 12.8-20.7 6.6-10.4 14.1-19.9-8.4 3.3-16.2 6.9-7.7 3.5-14.6 7.1-11.1 5.4-21.4 12.1-10.3 6.8-19.9 14.8-1.5 1.2-3.4 3.5-2 2.2-4.1 4.5-2 2.2-4.3 3.9-2.2 1.6-4.3 1.3-3.6-0.3-4.7-3.6-1-3.3 1.4-5.7zm35 87.3q-1.5 5.4-0.9 12.6 13.7-1.2 27.3-3.6 13.6-2.4 26.8-6.6 6.6-1.8 14.3-4.3 7.8-2.6 15.1-6.1 7.4-3.6 13.6-8.3 6.3-4.6 9.9-10.9 4.5-7.7 1.8-12.4-2.7-4.6-8.7-7.2-6-2.5-13.3-3.4-7.3-0.9-12.1-0.9-12.2 0.6-25.1 2.2-12.9 1.7-25.4 5l-13.2 5.1h-0.3q-3.9 9.5-6.4 19.1-2.5 9.6-3.4 19.7zm59.5-123.4q-10.5 13.4-19.6 27.6-9.1 14.2-16.6 29.2-2.4 4.1-4.5 8.3-2.1 4.2-3.9 8.4 16.8-5.7 33.1-12.9 16.2-7.1 31.8-15.2 10.2-5.1 19.6-11.1 9.4-5.9 17.8-13.4 3.6-3.3 7.6-7.9 4-4.7 4.6-9.8 0.3-2.6-1-5-1.4-2.4-3.6-4.4-2.3-1.9-4.8-3.4-2.5-1.5-4.6-2.4-10.5-4.2-22.1-3.9-11.7 0.3-23.1 3.3-3 3-5.7 6.1-2.6 3.2-5 6.5z"/>
						<path id="&lt;Compound Path&gt;" fill-rule="evenodd" class="s0" d="m202.2 221.7q5.4-2.7 11.2-6 5.9-3.2 11.8-5.6 3.9-6.9 11.1-11.2 7.2-4.4 15.2-5.9 4.2-0.6 9.8 0 5.5 0.6 8.5 4.5 2.1 2.4 1 5.1-1 2.7-3.6 5.1-2.5 2.4-5.6 4.3-3.2 2-4.7 2.8-5.4 3.3-11.8 5-6.4 1.6-13 1h-1.2q1.2 6.6 5.4 10.2 4.2 3.6 9.9 5.2 5.6 1.7 11.8 1.4 6.1-0.3 11.2-1.2 7.2-1.5 14-3.8 6.9-2.2 13.5-5.2 3-1.5 6.1-2.8 3.2-1.4 5.9-2.9 2-0.6 4.3 0.6 2.2 1.2 0.4 3.9-1.5 2.4-4.1 3.3-2.7 0.9-4.8 1.8l-15 6.6q-13.7 5.4-27.2 8.9-6 1.2-12.1 0.8-6.1-0.5-11.4-2.7-5.2-2.2-9.4-6.4-4.2-4.2-6-10.8-0.6-2.4-1-4.8-0.5-2.4 0.1-4.5-3.2 1.5-6.4 3.5-3.1 1.9-5.5 3.4-1.5 0.6-3.9 2.3-2.4 1.6-4.8 0.1-1.8-1.2-1.6-3.3 0.1-2.1 1.9-2.7zm30.5-8.3q7.2-0.3 13.9-3.6 6.7-3.3 11.8-8.4-4.2-1.5-8.2-0.9-4 0.6-7.5 2.4-3.4 1.8-6.1 4.6-2.7 2.9-3.9 5.9z"/>
						<path id="&lt;Compound Path&gt;" fill-rule="evenodd" class="s0" d="m307.8 221.7q9.2-4.2 17.9-9.2 8.7-5.1 17.3-11.1 4.2-8.4 9.3-16.1 5.1-7.8 9.9-15.3 5-6.9 10.1-13.9 5.1-7 10.5-13.9 4.5-6 9.7-12.1 5.2-6.1 12.1-10 3.3-1.8 8.1-2.6 4.8-0.7 6.6 4.4 1.2 3.3 0.1 6.4-1 3.1-3.1 6.3-2.1 3.1-4.5 6-2.4 2.8-3.9 4.9-11.9 17-26.7 31.8-14.8 14.8-31.9 27.4-1.5 3.6-3.4 7.6-2 4-3.5 8.5-1.5 4.5-2.1 8.8-0.6 4.4 0.3 8.3 3.3-0.6 6-0.9 2.4-0.3 4.5-0.5 2.1-0.1 2.7-0.4 9-1.8 17.6-4.8 8.7-3 17.1-6.6 2.4-0.6 5.7-2.4 3.2-1.8 5.6-0.3 3.3 2.4 0.9 4.4-2.4 1.9-4.4 2.8l-34.7 12.9q-5.1 1.8-9.9 3.7-4.8 1.9-9.9 2.2-4.4 0.6-7.1-1.3-2.7-2-3.8-5.1-1-3.1-0.7-6.9 0.3-3.7 1.2-7 2.1-7.2 5.4-14.3-12.3 8-25.8 14.6-2.9 0.6-4.9-1.9-1.9-2.6 1.7-4.4zm60.6-40.9q14.1-13.2 25.8-28.4 5.3-6.3 10.1-14.4 0.6-1.5 1.8-3.7 1.2-2.3 2.1-4.7-4.2 2.1-7.9 5.7-3.8 3.6-6.1 6-6.9 6.9-12.9 14.5-6 7.6-12 15.7-3.2 4.8-6.2 9.4-3 4.7-5.7 9.4 2.7-2.1 5.5-4.6 2.9-2.5 5.5-4.9z"/>
						<path id="&lt;Compound Path&gt;" class="s0" d="m395.4 222q3.5-1.8 9.1-4.6 5.5-2.9 11.8-5.5 6.3-2.7 12.1-5.1 5.8-2.4 9.7-3.9 2.1-0.9 7.5-2.7 5.4-1.8 11.3-3.3 6-1.5 11.3-2.1 5.2-0.6 7.6 0.9 3.6 3.3 1.3 6-2.2 2.7-5.5 3.3l-13.5 1.5q-4.2 1.2-7 2.8-2.8 1.7-6.4 4.1-1.5 1.2-5.2 4.9-3.8 3.7-7.4 8.1-3.6 4.3-5.7 8.3-2 4.1 0 5.9 1.8 1.5 5.9 0.6 4-0.9 8.2-2.7 4.2-1.8 7.8-3.8 3.6-1.9 4.8-2.8 8.6-5.4 14-11.4 2.7-3 5.8-0.7 3.2 2.2 2 6.1-0.6 2.1-2.1 3.6-1.5 1.5-2.9 2.8-1.3 1.4-2.2 3.8-1.2 2.1-0.6 3.1 0.6 1.1 2.1 1.4 4.2 0.6 10.5-0.6 6.2-1.2 13-3.3 6.7-2.1 13.3-5 6.5-2.8 11.3-5.2 1.2-0.3 3.3-1.6 2.1-1.4 4.4-2.3 2.2-0.9 4.3-0.9 2.1 0 3 1.8 1.2 1.8-0.2 3.3-1.3 1.5-3.7 2.5-2.4 1.1-4.8 2-2.4 0.9-3.6 1.5-5.1 2.4-10.1 4.6-5.1 2.3-10.5 4.7-3.6 1.5-7.8 3.5-4.2 2.1-8.6 3.6-4.5 1.5-9.2 2.1-4.6 0.6-8.5-0.9-5.1-2.1-6-5.8-0.9-3.7 0.3-7.9l-8 4.8q-5.1 2.9-10.7 6.1-5.5 3.1-11.5 3.7-5.3 0.3-9.5-2.4-4.2-2.7-4.5-8.3 0-3 2.4-7.7 2.4-4.6 6.1-9.5 3.7-5 8.2-9.1 4.5-4.2 8.4-6.3-2.1 0.6-6.7 2.7-4.7 2.1-10.5 5-5.8 3-12.3 6.2-6.4 3.1-11.8 5.8-1.5 0.9-2.9 0.5-1.5-0.5-2.3-1.5-0.7-1.1-0.6-2.4 0.2-1.4 2-2.3z"/>
						<path id="&lt;Compound Path&gt;" class="s0" d="m526.6 222q6.9-3.9 13.8-7.2 6.8-3.2 13.7-6.5 2.1-0.9 5.8-2.9 3.8-1.9 8-3.7 4.1-1.8 8-2.7 3.9-0.9 6.3 0.3 2.7 1.8 2.6 4.2-0.2 2.4-1.8 5.1-1.7 2.7-3.8 5.1-2.1 2.3-3 3.8-1.5 2.4-2.8 5.1-1.4 2.7-2.9 5.4 6.9-5.4 12.2-9.4 5.2-4.1 9.4-7 4.2-3 7.9-5.1 3.7-2.1 7.6-3.6 4.5-1.8 8.7-0.2 4.2 1.7 3 7.7-0.6 4.2-2.1 7.9-1.5 3.7-3.6 7.3 6.6-3.9 13.2-7.9 6.5-4 13.4-8.2 5.7-3.6 12.1-7.5 6.4-3.9 13.3-4.8 4.5-0.6 7.2 1.1 2.7 1.6 3.6 4.4 0.9 2.9 0.3 6.3-0.6 3.5-2.4 6.4-3.9 6.3-7.8 11.9-3.9 5.5-7.2 11.5 4.8 0.9 11.3-1.2 6.4-2.1 10.3-3.9 4.2-1.5 7.7-3.2 3.6-1.6 7.5-3.4 1.2-0.6 2.9-1.8 1.6-1.2 3.6-2.2 1.9-1.1 3.7-1.5 1.8-0.5 3.3 0.1 3 1.5 1.5 3.6-1.5 2.1-4.7 4-3.1 2-6.5 3.5-3.5 1.5-4.7 2.1-4.2 2.4-8.3 4.2-4.2 1.8-8.4 3.6-5.7 2.3-12.6 5-6.9 2.7-12.8 0-3.3-1.5-4.2-3.9-0.9-2.3-0.5-4.9 0.5-2.5 2.1-5.2 1.7-2.7 3.5-4.5 1.8-2.1 4.3-4.5 2.5-2.4 4.8-5.1 2.2-2.7 3.6-5.5 1.3-2.8 0.7-6.1-3-1.5-7.3 0.3-4.3 1.8-6.7 3-9 3.3-17.4 8.6-8.3 5.4-16.1 10.8-1.2 0.9-4.2 3.4-3 2.6-6.3 4.7-3.3 2.1-6.4 2.7-3.1 0.6-4.3-2.7-0.6-1.5 0.3-3.6 0.9-2.1 2.4-4.4 1.4-2.2 2.9-4.3 1.5-2.1 2.1-3.6 0.6-1.5 1.7-4.2 1-2.7 1.6-5.3-6.9 2.1-12.8 5.5-6 3.4-11.5 7.5-5.6 4-11 8.6-5.3 4.7-11 8.8-1.5 1.5-3.6 2.4-2.1 0.9-4.2-0.3-2.7-1.2-3-2.8-0.3-1.6 0.6-3.3 0.9-1.6 2.4-3.1 1.5-1.5 2.4-2.4 8.4-10.8 13.4-23.9-6.5 1.5-12.7 4-6.1 2.5-11.8 4.9-4.2 2.1-8.3 4.1-4.2 1.9-8.4 4.6-1.5 0.9-3 0.5-1.5-0.5-2.1-1.5-0.6-1.1-0.4-2.6 0.1-1.5 1.9-2.4z"/>
						<path id="&lt;Compound Path&gt;" class="s0" d="m705.4 221.7q7.8-2.4 15.2-5.8 7.5-3.4 15-6.7 1.8-0.9 5.5-3.5 3.8-2.5 7.6-4.6 3.9-2.1 7.4-2.8 3.4-0.8 5.2 1.9 1.5 2.4 0.4 4.6-1 2.3-3.1 4.5-2.1 2.3-4.5 4.2-2.4 2-3.6 3.1-4.4 4.5-8.6 9.9-4.2 5.4-4.2 11.4 5.4 0 11.3-2.7 6-2.7 10.5-4.5 14.4-6.6 28.4-15 7.8-4.7 14.1-9.5 2.6-1.8 5.5 0 2.8 1.8 2.2 5.4-0.6 2.7-2.5 5.2-2 2.5-3.4 5.2-1.5 2.4-2.9 6.6-1.3 4.2-0.1 7.5 3.3 1.8 8 0.4 4.8-1.3 7.8-2.2 12.9-4.5 23.9-10.2 2.1-0.9 5.3-2.5 3.1-1.7 4.6 1.3 1.5 2.7-0.5 4.1-1.9 1.3-4 2.2l-19.7 9.3q-6.3 2.7-13.8 6.1-7.5 3.4-14.9 1.6-5.4-1.5-6.2-6.1-0.7-4.6 0.8-8.8l4.5-10.8q-7.8 3.6-15.1 7.5-7.3 3.9-15.1 7.2-3.3 1.8-7.8 4.3-4.5 2.6-9.4 4.8-4.9 2.2-9.7 3.3-4.8 1-8.4-0.5-3.6-1.2-3.7-4.6-0.2-3.4 1.6-7.9 1.8-4.5 5.1-9.6 3.3-5.1 6.9-9.9l-7.2 3.3q-12.3 4.5-17.6 6.9-5.4 2.4-8.4 3-1.8 0.6-2.9-0.3-1-0.9-1.5-2.1-0.4-1.2 0-2.4 0.5-1.2 2-1.8z"/>
						<path id="&lt;Compound Path&gt;" class="s0" d="m845.9 221.7q6.3-3.3 12.4-6.6 6.1-3.2 13.3-7.4-0.6-5.7 3.5-10.8 4-5.1 10.3-4.8 4.2 0.6 5.3 4.2 1.2 3.6-1.1 6.9-2.4 3.6-6.3 6 2.1 1.2 5.1 1.2 6.2 0.6 13.1-2.3 6.9-2.8 12.3-6.1 5.4-1.8 6.8 1.2 1.5 3-1.1 7.2-1.5 2.4-3.5 6.1-1.9 3.7-3.3 7.6-1.3 3.9-1.5 7.5-0.1 3.6 2.3 5.7 1.5 1.8 7.9 0 6.4-1.8 17.2-6 3.6-1.5 7.3-3.4 3.7-2 7.6-3.8 0.9-0.3 2.7-1.3 1.8-1.1 3.5-1.5 1.6-0.5 3 0 1.3 0.4 1.3 3.1 0 1.5-1.3 2.7-1.4 1.2-3 2.1-1.7 0.9-3.5 1.5-1.8 0.6-2.7 0.9l-12.5 5.7q-3.3 1.8-8.2 4.5-5 2.6-10.1 4.4-5 1.8-9.8 1.8-4.8 0-7.5-3.9-1.5-2-1.8-4.6-0.3-2.5 0.2-5.1 0.4-2.5 1.1-5.1 0.8-2.5 1.4-4.9l2.4-9.9q-1.5 0.4-6.1 1.5-4.7 1.2-10.1 1.7-5.3 0.4-10.3-0.2-4.9-0.6-7.3-3.8-5.1 2.6-8.4 4.4-3.3 1.8-6.7 3.9-3.4 2.1-5.5 3.3-1.8 0.6-4.2 2.3-2.4 1.6-4.2 0.4-1.8-1.2-1.8-3.3 0-2.1 1.8-3z"/>
					</g>
				</g>
			</g>
			<g id="&lt;Group&gt;">
				<g id="&lt;Group&gt;">
					<path id="&lt;Path&gt;" class="s0" d="m527.8 61.7v0.1l-46.2 18.3c-0.3 0.2-0.6 0.6-0.5 0.9l1.1 6.3 1.2 6.4 8.5 47.7c-3.8-1.1-9.1 0.2-13.6 3.7-6.4 4.9-8.9 12.2-5.7 16.4 3.2 4.2 11 3.6 17.3-1.3 5.3-4.1 8.2-9.9 7.4-14.2l-9.5-53.4c-0.1-0.3 0.1-0.7 0.4-0.8l41.1-16.3c0.5-0.2 0.9 0.1 1 0.5l8 44.6c-3.8-1.2-9.1 0.1-13.7 3.6-6.3 4.9-8.9 12.3-5.6 16.5 3.2 4.2 10.9 3.6 17.3-1.3 5.3-4.1 7.9-9.9 6.8-14.1l-11.5-64c-0.1-0.5-0.6-0.8-1.1-0.6z"/>
				</g>
				<path id="&lt;Compound Path&gt;" class="s0" d="m488.4 105.7l-2.2-5.7 15.9-6.2 30.3-11.6 2.2 5.7z"/>
			</g>
			<path id="&lt;Path&gt;" class="s0" d="m488.4 26.9c-0.5-2.3-1.5-4.2-3-5.5-2.7-2.4-6.1-2.8-9.2-2.1-4.5 1-9.1 6.2-13.6 2-0.3-0.4-1.3-0.4-1.8-0.2-0.4 0.2-0.4 0.7-0.3 1.1q0 0.1 0 0.3 0 0 0 0.1l4.4 39.6c-2.5-0.9-6.1-0.3-9.2 1.8-4.4 2.9-6.5 7.7-4.5 10.6 1.9 2.9 7.1 2.9 11.5-0.1 3.7-2.5 5.2-6.1 4.9-9l-3.9-34.9c3.7 0.3 7.4-1.8 10-3.2 2-1.1 4-3 6.3-3.1 3.4-0.2 3.4 3.5 4.7 6.5 0.4 1 1.1 1.9 2 2.2 2.8 0.9 2.1-4.1 1.7-6.1z"/>
		</g>
	</g>
</svg>